<?xml version="1.0" encoding="utf-8"?>
<!-- Generator: Adobe Illustrator 24.1.1, SVG Export Plug-In . SVG Version: 6.00 Build 0)  -->
<svg version="1.1" id="Layer_1" xmlns="http://www.w3.org/2000/svg" xmlns:xlink="http://www.w3.org/1999/xlink" x="0px" y="0px"
	 viewBox="0 0 84.6 68" style="enable-background:new 0 0 84.6 68;" xml:space="preserve">
<style type="text/css">
	.st0{fill:#1C0C16;}
	.st1{fill:none;stroke:#FFFFFF;stroke-miterlimit:10;}
	.st2{fill:#FFFFFF;}
	.st3{fill:#F3E7DD;}
</style>
<path class="st0" d="M24.7,90.3c-9.9,0-18-8.1-18-18V26.8c0-4.5,3.7-8.3,8.3-8.3h43.4c4.4,0,7.9,3.6,7.9,7.9v45.8
	c0,10-8.1,18.1-18,18.1"/>
<path class="st0" d="M78,61.7c0,1.7-1.4,3.2-3.2,3.2H66c-1.4,0-2.5-1.1-2.5-2.5l0,0c0-1.4,1.1-2.5,2.4-2.5l6.2-0.1
	c0.7,0,1.2-0.6,1.2-1.3V46.6c0-1.4-1.1-2.5-2.5-2.5h-6.6c-0.4,0-0.7-0.3-0.7-0.7c0-0.9,0-2.5,0-3.4c0.1-0.4,0.4-0.8,0.8-0.8h9.3
	c2.4,0,4.4,2,4.4,4.4"/>
<line class="st1" x1="22.6" y1="18.5" x2="22.6" y2="46.1"/>
<path class="st2" d="M24.1,56.3l-1.5-1.2l-1.5,1.2c-0.7,0-5.4,0.5-5.4-0.2v-8.7c0-0.7,0.6-1.3,1.3-1.3h11.2c0.7,0,1.3,0.6,1.3,1.3
	v8.7C29.5,56.8,24.8,56.3,24.1,56.3z"/>
<path class="st3" d="M21.4-19.4C27-9.6,26.1-11.1,26.5-8c0.5,3.5-4.2,6.4-3.9,9.4C22.7,2.5,24,6.3,24,6.3s-4.6-4-5.2-5.8
	c-0.9-2.5,3.1-6.2,3.8-8.8C23.2-11,21.4-19.4,21.4-19.4"/>
<path class="st3" d="M49.7-21.1c3.7,6.4,3.1,5.5,3.4,7.5c0.3,2.3-2.7,4.2-2.6,6.2c0.1,0.7,0.9,3.3,0.9,3.3s-3-2.6-3.4-3.8
	c-0.6-1.7,2-4.1,2.5-5.8C50.9-15.5,49.7-21.1,49.7-21.1"/>
<path class="st3" d="M39.8-17.6C32.3-4.5,33.5-6.5,32.9-2.3c-0.6,4.7,5.6,8.6,5.3,12.6c-0.1,1.5-1.9,6.6-1.9,6.6s6.2-5.4,7-7.8
	c1.2-3.4-4.1-8.4-5-11.8C37.4-6.3,39.8-17.6,39.8-17.6"/>
</svg>
