<svg xmlns="http://www.w3.org/2000/svg" viewBox="0 0 994.93 1315.93"><defs><style>.cls-1,.cls-2{fill:#1c0c16;}.cls-1,.cls-3{stroke:#1c0c16;}.cls-1,.cls-10,.cls-11,.cls-12,.cls-3,.cls-6,.cls-8,.cls-9{stroke-miterlimit:10;}.cls-1,.cls-10,.cls-11,.cls-3,.cls-9{stroke-width:6px;}.cls-13,.cls-3,.cls-9{fill:#fff;}.cls-4{fill:#ffcfc9;}.cls-5{fill:#f3e7dd;}.cls-10,.cls-12,.cls-6,.cls-8{fill:none;}.cls-10,.cls-11,.cls-6,.cls-9{stroke:#d8baa3;}.cls-6{stroke-width:4px;}.cls-7{fill:#7f5d2b;}.cls-8{stroke:#7f5d2b;stroke-width:3px;}.cls-10,.cls-11,.cls-9{stroke-linecap:round;}.cls-11{fill:#f0e1d4;}.cls-12{stroke:#fff;}</style></defs><g id="Layer_2" data-name="Layer 2"><g id="Layer_1-2" data-name="Layer 1"><g id="Layer_2-2" data-name="Layer 2"><g id="Слой_1" data-name="Слой 1"><g id="_2" data-name=" 2"><g id="COMPUTER"><polyline class="cls-1" points="387.04 711.39 387.04 529.87 425.71 529.87 425.71 723.59"/><path class="cls-2" d="M3,490.17H485.08c11,0,20,7.93,20,17.74h0v4.7c0,9.8-9,17.75-20,17.75H4"/><polygon points="387.04 542.71 387.04 530.37 425.71 530.37 425.71 573.26 387.04 542.71"/><polygon class="cls-3" points="425.5 472.51 425.5 483.39 268.27 445.18 111.04 483.39 111.04 472.51 251.81 426.89 251.81 292.22 286.78 292.22 286.78 427.56 425.5 472.51"/><path class="cls-3" d="M513.16,383.71H65.28c-5.28,0-9.61-4.48-10-10.18,0-.59-.11-1.19-.2-1.77L3.24,90.83a11.38,11.38,0,0,1,.77-7,10,10,0,0,1,8.94-6H460.83c5.28,0,9.61,4.49,10,10.19a14.81,14.81,0,0,0,.2,1.76l51.82,280.94a11.54,11.54,0,0,1-.77,7A10,10,0,0,1,513.16,383.71Z"/><path class="cls-3" d="M486.07,361.57H85.12c-4.78,0-8.66-4.26-8.66-9.53l-45-244.22c0-5.26,3.87-9.53,8.66-9.53H441c4.78,0,8.66,4.27,8.66,9.53l45,244.22C494.72,357.31,490.85,361.57,486.07,361.57Z"/></g><g id="WOMAN"><g id="LEGS"><g id="RIGHT"><g id="FOOT"><path class="cls-4" d="M629,1240.78l13.33-91.54c-44.39,5-64.34,0-64.34,0l15.18,69.54c-.33,11.28-24,56.5-36.52,60.32S601.46,1294.53,629,1240.78Z"/><path class="cls-2" d="M530.53,1310.51c17.45-.12,22.76,1.4,41.88-4,14.8-4.16,54.69-18.65,67.57-43.42s-8.62-38.47-8.62-38.47c-15.27,0-14.63,36.72-43.77,50-14.52,6.61-26.94,2.46-39.5,6.29C520,1289.49,520,1310.58,530.53,1310.51Z"/></g><path id="LEG" class="cls-2" d="M462.42,817.73c9.67,17.72,71.6,142.19,115.6,331.51,0,0,20.63,6.51,64.34,0,0,0,39.81-229.12-4.07-302.33Z"/></g><g id="LEFT"><path id="LEG-2" class="cls-2" d="M808,583.84S870.49,740.3,837.09,800c-55.66,99.35-374.67,17.77-374.67,17.77s69.65,85.57-11.36,330c0,0-2.92,9.94-65.51,2,0,0-76.72-352.5-76.73-427.62,0-61.5,110-80.64,289.87-67.72,0,0,23.76-21.34,41.66-66C640.35,588.33,692.75,604.71,808,583.84Z"/><g id="FOOT-2"><path class="cls-4" d="M438,1240.78l13.33-91.54c-44.39,5-65.34,0-65.34,0l16.18,69.54c-.33,11.28-24,56.5-36.52,60.32S410.46,1294.53,438,1240.78Z"/><path class="cls-2" d="M396.59,1274.64c-14.52,6.61-26.94,2.46-39.5,6.29-28.07,8.56-32.32,35-23.84,34,25.69-3,74.37-20,99-30,10.34-4.17,8.67-20.91,5.77-44.21"/></g></g></g><g id="BLOUSE"><path id="BLOUSE-2" class="cls-5" d="M853.14,366.26c-17.54,71.66-42,196.86-42.69,213.84s-119.65,27.83-172.6,12.22c0,0-14.63-84.14-18.29-129.72-27.75,39-56.06,69.3-75.3,69.3-70.6,0-187.06-39.59-195.89-49.09l5.13-26.7c29.19.68,172.43-16.56,172.43-16.56s56.92-144.82,94.14-174.73l.16-.14c24.44-22.56,87.89-29.79,102.11-33.29,14.71-3.62,89.73-13.8,89.73-13.8C837.52,234,868.75,302.44,853.14,366.26Z"/><path id="SHADOW" class="cls-6" d="M620.62,466.9C649.87,428,667.32,390,684.3,356.47"/></g><path id="HAND" class="cls-4" d="M292.66,453.2c9.72-2.09,43.91-1.91,61.41,2.84l-3.31,29s-16.46,8.06-27.33,3.59-19.07-13.27-26.81-10.86-17.26,8.51-21.91,7.4a49.13,49.13,0,0,1-15.62-6.47C260.94,475.3,280.68,456.91,292.66,453.2Z"/><g id="HEAD"><path id="NECK" class="cls-4" d="M708.77,166.22c2.71,10.86,13.57,57.93,13.57,65.17s74.71-1.14,89.19-13.81c0,0-29.45-32.82-36.69-82.14Z"/><path id="HEAD-2" class="cls-4" d="M765.67,140.49S742.88,188,695.53,184.24a9.59,9.59,0,0,1-7.65-4.92c-6.5-11.8-23.74-45-23.11-64.71.78-24.21,11.08-69.1,11.08-69.1S733.51,33.57,765.52,87C783.45,117,765.67,140.49,765.67,140.49Z"/><g id="HAIR"><path class="cls-7" d="M857.32,234.07s-48.7-4-138.18,1.82c0,0-31.27-56.57,4.62-96.38,20.52-22.76-4.63-51.61-4.63-51.61-28.75-9-34.83-15.3-34.83-15.3-11.41-16.77-33.85-34.27-2.13-57.78C715-9.5,778.55-4.43,816.55,34.08c23.34,28.14,35.34,66,36.47,80.33C850.13,198.79,857.32,234.07,857.32,234.07Z"/><path class="cls-8" d="M710.64,229.93s-33.4-52.73,5-90.09c22-21.36,3.15-56.18,3.15-56.18"/></g></g></g><g id="CHAIR"><path class="cls-9" d="M991.15,425.17c-5.31,20-76.4,149-83.45,331.15a98,98,0,0,1-97.88,94.27H489.09c-10.91,0-18.33,4.38-23,11.49a3.38,3.38,0,0,1-6.16-1.91V843.58c0-22,17.89-43.88,39.93-43.82l97.92.08c43.84.13,69.79-30.54,71.45-74.35,6.12-161.8,58.16-264.21,81.74-297.37a45.27,45.27,0,0,1,36.9-19H983C991.26,409.13,993.27,417.18,991.15,425.17Z"/><path class="cls-10" d="M988.41,424H797.63a43,43,0,0,0-35,18c-22.48,31.62-70.41,160.27-76.28,305.9a68.57,68.57,0,0,1-68.54,65.74H496.44a36.52,36.52,0,0,0-36.52,36.52h0"/><rect class="cls-11" x="659.87" y="916.2" width="35" height="322.12"/><path class="cls-10" d="M602.45,1272.89c0-18.87,14.1-34.17,31.49-34.17h87c17.39,0,31.5,15.3,31.5,34.17"/><circle class="cls-9" cx="750.45" cy="1288.39" r="24.54"/><circle class="cls-9" cx="605.45" cy="1288.39" r="24.54"/><path class="cls-9" d="M639,851.17h76.67v48.08a27.59,27.59,0,0,1-27.59,27.59H666.63A27.59,27.59,0,0,1,639,899.27v-48.1Z"/><path class="cls-10" d="M535.38,1272.71a34,34,0,0,1,34-34h227a34,34,0,0,1,34,34h0"/><circle class="cls-9" cx="528.45" cy="1288.39" r="24.54" transform="translate(-794.16 1724.17) rotate(-85.93)"/><circle class="cls-9" cx="834.45" cy="1288.39" r="24.54"/></g></g></g></g><path class="cls-2" d="M30.65,418.38H74.07A7.95,7.95,0,0,1,82,426.33v45.83a18,18,0,0,1-18,18H40.4a18,18,0,0,1-18-18V426.64A8.25,8.25,0,0,1,30.65,418.38Z"/><path class="cls-2" d="M80,439.08h9.3a4.42,4.42,0,0,1,4.42,4.43V461.6a3.17,3.17,0,0,1-3.17,3.17H81.77a2.52,2.52,0,0,1-2.51-2.51h0a2.52,2.52,0,0,1,2.45-2.51l6.17-.14a1.27,1.27,0,0,0,1.24-1.27V446.41a2.5,2.5,0,0,0-2.5-2.51H80a.73.73,0,0,1-.72-.73c0-.94,0-2.47,0-3.36A.71.71,0,0,1,80,439.08Z"/><line class="cls-12" x1="38.3" y1="418.38" x2="38.3" y2="445.9"/><path class="cls-13" d="M39.75,456.14l-1.45-1.22-1.53,1.22c-.72,0-5.35.49-5.35-.23V447.2a1.3,1.3,0,0,1,1.3-1.3H43.88a1.3,1.3,0,0,1,1.29,1.3v8.71C45.17,456.63,40.46,456.14,39.75,456.14Z"/><path class="cls-5" d="M37.12,380.45c5.57,9.78,4.72,8.28,5.12,11.38.45,3.52-4.15,6.42-4,9.38a38.55,38.55,0,0,0,1.39,5s-4.61-4-5.23-5.8c-.88-2.53,3.06-6.24,3.75-8.82S37.12,380.45,37.12,380.45Z"/><path class="cls-5" d="M65.44,378.77c3.67,6.45,3.11,5.46,3.37,7.49.3,2.33-2.73,4.24-2.6,6.18a24.4,24.4,0,0,0,.92,3.26s-3-2.64-3.45-3.82c-.58-1.66,2-4.1,2.47-5.8S65.44,378.77,65.44,378.77Z"/><path class="cls-5" d="M55.47,382.24c-7.49,13.15-6.34,11.13-6.87,15.29-.61,4.74,5.58,8.64,5.3,12.61A50.56,50.56,0,0,1,52,416.79s6.2-5.4,7-7.79c1.18-3.4-4.12-8.38-5-11.85S55.47,382.24,55.47,382.24Z"/></g></g></svg>